<svg width="30" height="31" viewBox="0 0 30 31" fill="none" xmlns="http://www.w3.org/2000/svg">
<path d="M8.99752 24.5C7.34798 24.5 6.01334 25.85 6.01334 27.5C6.01334 29.15 7.34798 30.5 8.99752 30.5C10.6471 30.5 11.9967 29.15 11.9967 27.5C11.9967 25.85 10.6471 24.5 8.99752 24.5ZM0 2C0 2.825 0.674814 3.5 1.49959 3.5H2.99917L8.39769 14.885L6.37325 18.545C5.27855 20.555 6.71815 23 8.99752 23H25.493C26.3178 23 26.9926 22.325 26.9926 21.5C26.9926 20.675 26.3178 20 25.493 20H8.99752L10.6471 17H21.819C22.9437 17 23.9334 16.385 24.4433 15.455L29.8118 5.72C29.9382 5.49264 30.003 5.23621 29.9999 4.97608C29.9968 4.71596 29.9258 4.46116 29.794 4.23689C29.6622 4.01263 29.4742 3.82667 29.2485 3.69743C29.0228 3.56818 28.7672 3.50013 28.5072 3.5H6.31326L5.30854 1.355C5.18802 1.09896 4.99707 0.882562 4.75805 0.731142C4.51903 0.579721 4.24183 0.499546 3.95891 0.500002H1.49959C0.674814 0.500002 0 1.175 0 2ZM23.9934 24.5C22.3438 24.5 21.0092 25.85 21.0092 27.5C21.0092 29.15 22.3438 30.5 23.9934 30.5C25.6429 30.5 26.9926 29.15 26.9926 27.5C26.9926 25.85 25.6429 24.5 23.9934 24.5Z" fill="#F7F9F9"/>
</svg>
