<svg width="30" height="30" viewBox="0 0 30 30" fill="none" xmlns="http://www.w3.org/2000/svg">
<path d="M27.5768 2.78515C26.0059 0.998312 23.9262 0.0217025 21.7066 0.0217025C19.487 0.0217025 17.4009 1.00555 15.83 2.79238L15.0095 3.72559L14.1764 2.77791C12.6055 0.991078 10.513 0 8.29342 0C6.08016 0 3.99409 0.983844 2.42954 2.76344C0.858629 4.55028 -0.00632513 6.92308 3.48253e-05 9.44779C3.48253e-05 11.9725 0.871349 14.3381 2.44226 16.1249L14.3863 29.7106C14.5516 29.8987 14.7742 30 14.9905 30C15.2067 30 15.4293 29.906 15.5947 29.7179L27.5641 16.1538C29.135 14.367 30 11.9942 30 9.4695C30.0063 6.94478 29.1477 4.57198 27.5768 2.78515ZM26.3557 14.7721L14.9905 27.6489L3.65065 14.7504C2.4041 13.3325 1.71722 11.4517 1.71722 9.44779C1.71722 7.44394 2.39774 5.56306 3.64429 4.1524C4.88448 2.74174 6.53807 1.96045 8.29342 1.96045C10.0551 1.96045 11.7151 2.74174 12.9616 4.15963L14.399 5.79455C14.7361 6.17796 15.2767 6.17796 15.6137 5.79455L17.0384 4.1741C18.2849 2.75621 19.9449 1.97492 21.7002 1.97492C23.4556 1.97492 25.1092 2.75621 26.3557 4.16687C27.6023 5.58476 28.2828 7.46564 28.2828 9.4695C28.2891 11.4734 27.6023 13.3542 26.3557 14.7721Z" fill="white"/>
</svg>
